<mxfile modified="2022-05-02T01:29:01.691Z" host="app.diagrams.net" agent="5.0 (Windows NT 10.0; Win64; x64) AppleWebKit/537.36 (KHTML, like Gecko) Chrome/100.0.4896.127 Safari/537.36 Edg/100.0.1185.50" etag="_AGZpmNSnnwKrKAQeZvG" compressed="false" version="17.5.0" type="google">
  <diagram id="aNyAdyo387tV6hbeCc-s" name="System Context/Domains/Logical Modules/Detailed">
    <mxGraphModel grid="1" page="1" gridSize="10" guides="1" tooltips="1" connect="1" arrows="1" fold="1" pageScale="1" pageWidth="827" pageHeight="1169" math="0" shadow="0">
      <root>
        <mxCell id="MPbT1AF3VpLyfWpaxldT-0" />
        <mxCell id="yXY6S8G6PErxGlvrMDyJ-1" value="Background" parent="MPbT1AF3VpLyfWpaxldT-0" />
        <mxCell id="VevSGdrSwYaJ5KX_lJt9-1" value="Foundation Logical Modules" style="rounded=1;whiteSpace=wrap;html=1;strokeWidth=1;align=center;absoluteArcSize=1;dashed=1;strokeColor=#6c8ebf;fillColor=none;verticalAlign=top;spacing=-2;" vertex="1" parent="yXY6S8G6PErxGlvrMDyJ-1">
          <mxGeometry x="120" y="260" width="560" height="740" as="geometry" />
        </mxCell>
        <mxCell id="yXY6S8G6PErxGlvrMDyJ-0" value="Business Specific Logical Modules" style="rounded=1;whiteSpace=wrap;html=1;strokeWidth=1;align=center;absoluteArcSize=1;dashed=1;strokeColor=#6c8ebf;fillColor=none;verticalAlign=top;spacing=-2;" vertex="1" parent="yXY6S8G6PErxGlvrMDyJ-1">
          <mxGeometry x="120" y="120" width="560" height="130" as="geometry" />
        </mxCell>
        <mxCell id="unfCGulQVyg2nSyRCTJK-5" value="Boexes" style="" parent="MPbT1AF3VpLyfWpaxldT-0" />
        <mxCell id="unfCGulQVyg2nSyRCTJK-8" value="" style="rounded=0;whiteSpace=wrap;html=1;align=center;fillColor=#f5f5f5;strokeColor=#666666;fontColor=#333333;strokeWidth=4;" vertex="1" parent="unfCGulQVyg2nSyRCTJK-5">
          <mxGeometry x="130" y="510" width="540" height="480" as="geometry" />
        </mxCell>
        <mxCell id="unfCGulQVyg2nSyRCTJK-7" value="" style="rounded=0;whiteSpace=wrap;html=1;align=center;fillColor=#f5f5f5;strokeColor=#666666;fontColor=#333333;strokeWidth=4;" vertex="1" parent="unfCGulQVyg2nSyRCTJK-5">
          <mxGeometry x="130" y="280" width="540" height="220" as="geometry" />
        </mxCell>
        <mxCell id="unfCGulQVyg2nSyRCTJK-6" value="" style="rounded=0;whiteSpace=wrap;html=1;align=center;fillColor=#f5f5f5;strokeColor=#666666;fontColor=#333333;strokeWidth=4;" vertex="1" parent="unfCGulQVyg2nSyRCTJK-5">
          <mxGeometry x="130" y="140" width="540" height="100" as="geometry" />
        </mxCell>
        <mxCell id="MPbT1AF3VpLyfWpaxldT-1" value="Diagram" parent="MPbT1AF3VpLyfWpaxldT-0" />
        <mxCell id="MPbT1AF3VpLyfWpaxldT-7" value="Entities &amp;amp; API DTOs" style="rounded=0;whiteSpace=wrap;html=1;align=left;spacingLeft=0;spacing=4;" vertex="1" parent="MPbT1AF3VpLyfWpaxldT-1">
          <mxGeometry x="410" y="220" width="260" height="20" as="geometry" />
        </mxCell>
        <mxCell id="MPbT1AF3VpLyfWpaxldT-8" value="Status Dashboard Widget Integration" style="rounded=0;whiteSpace=wrap;html=1;align=left;spacingLeft=0;spacing=4;" vertex="1" parent="MPbT1AF3VpLyfWpaxldT-1">
          <mxGeometry x="410" y="140" width="260" height="20" as="geometry" />
        </mxCell>
        <mxCell id="MPbT1AF3VpLyfWpaxldT-9" value="Users, Identities, Authentication" style="rounded=0;whiteSpace=wrap;html=1;align=left;spacingLeft=0;spacing=4;" vertex="1" parent="MPbT1AF3VpLyfWpaxldT-1">
          <mxGeometry x="410" y="650" width="260" height="20" as="geometry" />
        </mxCell>
        <mxCell id="MPbT1AF3VpLyfWpaxldT-11" value="Sessions" style="rounded=0;whiteSpace=wrap;html=1;align=left;spacingLeft=0;spacing=4;" vertex="1" parent="MPbT1AF3VpLyfWpaxldT-1">
          <mxGeometry x="410" y="710" width="260" height="20" as="geometry" />
        </mxCell>
        <mxCell id="MPbT1AF3VpLyfWpaxldT-14" value="Immutable Configuration" style="rounded=0;whiteSpace=wrap;html=1;align=left;spacingLeft=0;spacing=4;" vertex="1" parent="MPbT1AF3VpLyfWpaxldT-1">
          <mxGeometry x="410" y="970" width="260" height="20" as="geometry" />
        </mxCell>
        <mxCell id="MPbT1AF3VpLyfWpaxldT-15" value="Permissions, Roles, Authorisation" style="rounded=0;whiteSpace=wrap;html=1;align=left;spacingLeft=0;spacing=4;" vertex="1" parent="MPbT1AF3VpLyfWpaxldT-1">
          <mxGeometry x="410" y="630" width="260" height="20" as="geometry" />
        </mxCell>
        <mxCell id="MPbT1AF3VpLyfWpaxldT-16" value="Diagnostics, Error Logging" style="rounded=0;whiteSpace=wrap;html=1;align=left;spacingLeft=0;spacing=4;" vertex="1" parent="MPbT1AF3VpLyfWpaxldT-1">
          <mxGeometry x="410" y="750" width="260" height="20" as="geometry" />
        </mxCell>
        <mxCell id="MPbT1AF3VpLyfWpaxldT-17" value="System Notifications" style="rounded=0;whiteSpace=wrap;html=1;align=left;spacingLeft=0;spacing=4;" vertex="1" parent="MPbT1AF3VpLyfWpaxldT-1">
          <mxGeometry x="410" y="570" width="260" height="20" as="geometry" />
        </mxCell>
        <mxCell id="MPbT1AF3VpLyfWpaxldT-18" value="Groups, Membership" style="rounded=0;whiteSpace=wrap;html=1;align=left;spacingLeft=0;spacing=4;" vertex="1" parent="MPbT1AF3VpLyfWpaxldT-1">
          <mxGeometry x="410" y="610" width="260" height="20" as="geometry" />
        </mxCell>
        <mxCell id="MPbT1AF3VpLyfWpaxldT-19" value="Group Permissions, Roles, Authorisation" style="rounded=0;whiteSpace=wrap;html=1;align=left;spacingLeft=0;spacing=4;" vertex="1" parent="MPbT1AF3VpLyfWpaxldT-1">
          <mxGeometry x="410" y="590" width="260" height="20" as="geometry" />
        </mxCell>
        <mxCell id="MPbT1AF3VpLyfWpaxldT-21" value="Integration" style="rounded=0;whiteSpace=wrap;html=1;align=left;spacingLeft=0;spacing=4;" vertex="1" parent="MPbT1AF3VpLyfWpaxldT-1">
          <mxGeometry x="410" y="790" width="90" height="180" as="geometry" />
        </mxCell>
        <mxCell id="MPbT1AF3VpLyfWpaxldT-23" value="No Repudiation &amp;amp; Auditing (later)" style="rounded=0;whiteSpace=wrap;html=1;align=left;spacingLeft=0;spacing=4;" vertex="1" parent="MPbT1AF3VpLyfWpaxldT-1">
          <mxGeometry x="410" y="690" width="260" height="20" as="geometry" />
        </mxCell>
        <mxCell id="MPbT1AF3VpLyfWpaxldT-31" value="Resource Management Workflows" style="rounded=0;whiteSpace=wrap;html=1;align=left;spacingLeft=0;spacing=4;" vertex="1" parent="MPbT1AF3VpLyfWpaxldT-1">
          <mxGeometry x="410" y="400" width="260" height="20" as="geometry" />
        </mxCell>
        <mxCell id="MPbT1AF3VpLyfWpaxldT-33" value="Resource Record Collection Management" style="rounded=0;whiteSpace=wrap;html=1;align=left;spacingLeft=0;spacing=4;" vertex="1" parent="MPbT1AF3VpLyfWpaxldT-1">
          <mxGeometry x="410" y="440" width="260" height="20" as="geometry" />
        </mxCell>
        <mxCell id="MPbT1AF3VpLyfWpaxldT-34" value="Single Record Storage Management" style="rounded=0;whiteSpace=wrap;html=1;align=left;spacingLeft=0;spacing=4;" vertex="1" parent="MPbT1AF3VpLyfWpaxldT-1">
          <mxGeometry x="410" y="460" width="260" height="20" as="geometry" />
        </mxCell>
        <mxCell id="MPbT1AF3VpLyfWpaxldT-35" value="Use Rights Management" style="rounded=0;whiteSpace=wrap;html=1;align=left;spacingLeft=0;spacing=4;" vertex="1" parent="MPbT1AF3VpLyfWpaxldT-1">
          <mxGeometry x="410" y="340" width="260" height="20" as="geometry" />
        </mxCell>
        <mxCell id="MPbT1AF3VpLyfWpaxldT-36" value="Static versus Interactive Use" style="rounded=0;whiteSpace=wrap;html=1;align=left;spacingLeft=0;spacing=4;" vertex="1" parent="MPbT1AF3VpLyfWpaxldT-1">
          <mxGeometry x="410" y="320" width="260" height="20" as="geometry" />
        </mxCell>
        <mxCell id="MPbT1AF3VpLyfWpaxldT-37" value="Resource Linking" style="rounded=0;whiteSpace=wrap;html=1;align=left;spacingLeft=0;spacing=4;" vertex="1" parent="MPbT1AF3VpLyfWpaxldT-1">
          <mxGeometry x="410" y="360" width="260" height="20" as="geometry" />
        </mxCell>
        <mxCell id="MPbT1AF3VpLyfWpaxldT-38" value="Custom Resource Metadata" style="rounded=0;whiteSpace=wrap;html=1;align=left;spacingLeft=0;spacing=4;" vertex="1" parent="MPbT1AF3VpLyfWpaxldT-1">
          <mxGeometry x="410" y="380" width="260" height="20" as="geometry" />
        </mxCell>
        <mxCell id="MPbT1AF3VpLyfWpaxldT-39" value="Perspectives" style="rounded=0;whiteSpace=wrap;html=1;horizontal=0;verticalAlign=top;align=center;fillColor=#f5f5f5;strokeColor=#666666;fontColor=#333333;spacingLeft=0;spacing=4;" vertex="1" parent="MPbT1AF3VpLyfWpaxldT-1">
          <mxGeometry x="250" y="140" width="160" height="100" as="geometry" />
        </mxCell>
        <mxCell id="MPbT1AF3VpLyfWpaxldT-40" value="Navigation / Entry Points" style="rounded=0;whiteSpace=wrap;html=1;align=left;spacingLeft=0;spacing=4;" vertex="1" parent="MPbT1AF3VpLyfWpaxldT-1">
          <mxGeometry x="410" y="180" width="260" height="20" as="geometry" />
        </mxCell>
        <mxCell id="MPbT1AF3VpLyfWpaxldT-43" value="Metric Collection" style="rounded=0;whiteSpace=wrap;html=1;align=left;spacingLeft=0;spacing=4;" vertex="1" parent="MPbT1AF3VpLyfWpaxldT-1">
          <mxGeometry x="410" y="730" width="260" height="20" as="geometry" />
        </mxCell>
        <mxCell id="MPbT1AF3VpLyfWpaxldT-44" value="User Messaging" style="rounded=0;whiteSpace=wrap;html=1;align=left;spacingLeft=0;spacing=4;" vertex="1" parent="MPbT1AF3VpLyfWpaxldT-1">
          <mxGeometry x="410" y="510" width="260" height="20" as="geometry" />
        </mxCell>
        <mxCell id="MPbT1AF3VpLyfWpaxldT-45" value="User Notifications" style="rounded=0;whiteSpace=wrap;html=1;align=left;spacingLeft=0;spacing=4;" vertex="1" parent="MPbT1AF3VpLyfWpaxldT-1">
          <mxGeometry x="410" y="530" width="260" height="20" as="geometry" />
        </mxCell>
        <mxCell id="MPbT1AF3VpLyfWpaxldT-47" value="Storage" style="rounded=0;whiteSpace=wrap;html=1;align=left;fillColor=#f5f5f5;strokeColor=#666666;fontColor=#333333;spacingLeft=0;spacing=4;" vertex="1" parent="MPbT1AF3VpLyfWpaxldT-1">
          <mxGeometry x="250" y="460" width="160" height="40" as="geometry" />
        </mxCell>
        <mxCell id="MPbT1AF3VpLyfWpaxldT-48" value="Resource Development" style="rounded=0;whiteSpace=wrap;html=1;align=left;fillColor=#f5f5f5;strokeColor=#666666;fontColor=#333333;spacingLeft=0;spacing=4;" vertex="1" parent="MPbT1AF3VpLyfWpaxldT-1">
          <mxGeometry x="250" y="420" width="160" height="40" as="geometry" />
        </mxCell>
        <mxCell id="MPbT1AF3VpLyfWpaxldT-49" value="Resource Classification" style="rounded=0;whiteSpace=wrap;html=1;align=left;fillColor=#f5f5f5;strokeColor=#666666;fontColor=#333333;spacingLeft=0;spacing=4;" vertex="1" parent="MPbT1AF3VpLyfWpaxldT-1">
          <mxGeometry x="250" y="360" width="160" height="60" as="geometry" />
        </mxCell>
        <mxCell id="MPbT1AF3VpLyfWpaxldT-50" value="Consumption" style="rounded=0;whiteSpace=wrap;html=1;align=left;fillColor=#f5f5f5;strokeColor=#666666;fontColor=#333333;spacingLeft=0;spacing=4;" vertex="1" parent="MPbT1AF3VpLyfWpaxldT-1">
          <mxGeometry x="250" y="320" width="160" height="40" as="geometry" />
        </mxCell>
        <mxCell id="MPbT1AF3VpLyfWpaxldT-51" value="Text Media Development (WYSIWYG, etc.)" style="rounded=0;whiteSpace=wrap;html=1;align=left;spacingLeft=0;spacing=4;" vertex="1" parent="MPbT1AF3VpLyfWpaxldT-1">
          <mxGeometry x="410" y="420" width="260" height="20" as="geometry" />
        </mxCell>
        <mxCell id="MPbT1AF3VpLyfWpaxldT-52" value="Resource Tech Metadata (Mime, Size, etc.)" style="rounded=0;whiteSpace=wrap;html=1;align=left;spacingLeft=0;spacing=4;" vertex="1" parent="MPbT1AF3VpLyfWpaxldT-1">
          <mxGeometry x="410" y="480" width="260" height="20" as="geometry" />
        </mxCell>
        <mxCell id="MPbT1AF3VpLyfWpaxldT-54" value="Consumer" style="rounded=0;whiteSpace=wrap;html=1;align=left;fillColor=#f5f5f5;strokeColor=#666666;fontColor=#333333;spacingLeft=0;spacing=4;" vertex="1" parent="MPbT1AF3VpLyfWpaxldT-1">
          <mxGeometry x="280" y="150" width="120" height="20" as="geometry" />
        </mxCell>
        <mxCell id="MPbT1AF3VpLyfWpaxldT-55" value="Business" style="rounded=0;whiteSpace=wrap;html=1;align=left;fillColor=#f5f5f5;strokeColor=#666666;fontColor=#333333;spacingLeft=0;spacing=4;" vertex="1" parent="MPbT1AF3VpLyfWpaxldT-1">
          <mxGeometry x="280" y="190" width="120" height="20" as="geometry" />
        </mxCell>
        <mxCell id="MPbT1AF3VpLyfWpaxldT-56" value="Support" style="rounded=0;whiteSpace=wrap;html=1;align=left;fillColor=#f5f5f5;strokeColor=#666666;fontColor=#333333;spacingLeft=0;spacing=4;" vertex="1" parent="MPbT1AF3VpLyfWpaxldT-1">
          <mxGeometry x="280" y="210" width="120" height="20" as="geometry" />
        </mxCell>
        <mxCell id="MPbT1AF3VpLyfWpaxldT-57" value="Partners" style="rounded=0;whiteSpace=wrap;html=1;align=left;fillColor=#f5f5f5;strokeColor=#666666;fontColor=#333333;spacingLeft=0;spacing=4;" vertex="1" parent="MPbT1AF3VpLyfWpaxldT-1">
          <mxGeometry x="280" y="170" width="120" height="20" as="geometry" />
        </mxCell>
        <mxCell id="MPbT1AF3VpLyfWpaxldT-59" value="Dashboard" style="rounded=0;whiteSpace=wrap;html=1;align=left;spacingLeft=0;spacing=4;" vertex="1" parent="MPbT1AF3VpLyfWpaxldT-1">
          <mxGeometry x="410" y="550" width="260" height="20" as="geometry" />
        </mxCell>
        <mxCell id="MPbT1AF3VpLyfWpaxldT-60" value="Storage" style="rounded=0;whiteSpace=wrap;html=1;align=left;spacingLeft=0;spacing=4;" vertex="1" parent="MPbT1AF3VpLyfWpaxldT-1">
          <mxGeometry x="500" y="910" width="60" height="60" as="geometry" />
        </mxCell>
        <mxCell id="MPbT1AF3VpLyfWpaxldT-61" value="3rd party Identity Providers" style="rounded=0;whiteSpace=wrap;html=1;align=left;spacingLeft=0;spacing=4;" vertex="1" parent="MPbT1AF3VpLyfWpaxldT-1">
          <mxGeometry x="500" y="870" width="170" height="20" as="geometry" />
        </mxCell>
        <mxCell id="MPbT1AF3VpLyfWpaxldT-62" value="IP/Geo Conversion" style="rounded=0;whiteSpace=wrap;html=1;align=left;spacingLeft=0;spacing=4;" vertex="1" parent="MPbT1AF3VpLyfWpaxldT-1">
          <mxGeometry x="500" y="850" width="170" height="20" as="geometry" />
        </mxCell>
        <mxCell id="MPbT1AF3VpLyfWpaxldT-63" value="SMTP" style="rounded=0;whiteSpace=wrap;html=1;align=left;spacingLeft=0;spacing=4;" vertex="1" parent="MPbT1AF3VpLyfWpaxldT-1">
          <mxGeometry x="500" y="810" width="170" height="20" as="geometry" />
        </mxCell>
        <mxCell id="MPbT1AF3VpLyfWpaxldT-64" value="Upload Malware Detection" style="rounded=0;whiteSpace=wrap;html=1;align=left;spacingLeft=0;spacing=4;" vertex="1" parent="MPbT1AF3VpLyfWpaxldT-1">
          <mxGeometry x="500" y="790" width="170" height="20" as="geometry" />
        </mxCell>
        <mxCell id="MPbT1AF3VpLyfWpaxldT-66" value="Caching" style="rounded=0;whiteSpace=wrap;html=1;align=left;spacingLeft=0;spacing=4;" vertex="1" parent="MPbT1AF3VpLyfWpaxldT-1">
          <mxGeometry x="500" y="890" width="170" height="20" as="geometry" />
        </mxCell>
        <mxCell id="MPbT1AF3VpLyfWpaxldT-67" value="Database" style="rounded=0;whiteSpace=wrap;html=1;align=left;spacingLeft=0;spacing=4;" vertex="1" parent="MPbT1AF3VpLyfWpaxldT-1">
          <mxGeometry x="560" y="950" width="110" height="20" as="geometry" />
        </mxCell>
        <mxCell id="MPbT1AF3VpLyfWpaxldT-68" value="Blob" style="rounded=0;whiteSpace=wrap;html=1;align=left;spacingLeft=0;spacing=4;" vertex="1" parent="MPbT1AF3VpLyfWpaxldT-1">
          <mxGeometry x="560" y="930" width="110" height="20" as="geometry" />
        </mxCell>
        <mxCell id="MPbT1AF3VpLyfWpaxldT-69" value="Secure/Credential" style="rounded=0;whiteSpace=wrap;html=1;align=left;spacingLeft=0;spacing=4;" vertex="1" parent="MPbT1AF3VpLyfWpaxldT-1">
          <mxGeometry x="560" y="910" width="110" height="20" as="geometry" />
        </mxCell>
        <mxCell id="MPbT1AF3VpLyfWpaxldT-71" value="Mutable System Configuration" style="rounded=0;whiteSpace=wrap;html=1;align=left;spacingLeft=0;spacing=4;" vertex="1" parent="MPbT1AF3VpLyfWpaxldT-1">
          <mxGeometry x="410" y="770" width="260" height="20" as="geometry" />
        </mxCell>
        <mxCell id="MPbT1AF3VpLyfWpaxldT-73" value="Configuration" style="rounded=0;whiteSpace=wrap;html=1;align=left;spacingLeft=0;spacing=4;" vertex="1" parent="MPbT1AF3VpLyfWpaxldT-1">
          <mxGeometry x="410" y="200" width="260" height="20" as="geometry" />
        </mxCell>
        <mxCell id="MPbT1AF3VpLyfWpaxldT-74" value="Feedback" style="rounded=0;whiteSpace=wrap;html=1;align=left;fillColor=#f5f5f5;strokeColor=#666666;fontColor=#333333;spacingLeft=0;spacing=4;" vertex="1" parent="MPbT1AF3VpLyfWpaxldT-1">
          <mxGeometry x="250" y="280" width="160" height="40" as="geometry" />
        </mxCell>
        <mxCell id="MPbT1AF3VpLyfWpaxldT-75" value="Feedback" style="rounded=0;whiteSpace=wrap;html=1;align=left;spacingLeft=0;spacing=4;" vertex="1" parent="MPbT1AF3VpLyfWpaxldT-1">
          <mxGeometry x="410" y="300" width="260" height="20" as="geometry" />
        </mxCell>
        <mxCell id="MPbT1AF3VpLyfWpaxldT-76" value="Rating" style="rounded=0;whiteSpace=wrap;html=1;align=left;spacingLeft=0;spacing=4;" vertex="1" parent="MPbT1AF3VpLyfWpaxldT-1">
          <mxGeometry x="410" y="280" width="260" height="20" as="geometry" />
        </mxCell>
        <mxCell id="MPbT1AF3VpLyfWpaxldT-4" value="Shared Resources&lt;br&gt;Domain" style="rounded=0;whiteSpace=wrap;html=1;align=center;fillColor=#f5f5f5;strokeColor=#666666;fontColor=#333333;strokeWidth=3;spacingLeft=0;spacing=4;" vertex="1" parent="MPbT1AF3VpLyfWpaxldT-1">
          <mxGeometry x="130" y="280" width="120" height="220" as="geometry" />
        </mxCell>
        <mxCell id="MPbT1AF3VpLyfWpaxldT-53" value="Specific Business&amp;nbsp; Domains" style="rounded=0;whiteSpace=wrap;html=1;align=center;fillColor=#f5f5f5;strokeColor=#666666;fontColor=#333333;strokeWidth=3;spacingLeft=0;spacing=4;" vertex="1" parent="MPbT1AF3VpLyfWpaxldT-1">
          <mxGeometry x="130" y="140" width="120" height="100" as="geometry" />
        </mxCell>
        <mxCell id="unfCGulQVyg2nSyRCTJK-10" value="Search Customization &amp;amp; Optimisation" style="rounded=0;whiteSpace=wrap;html=1;align=left;spacingLeft=0;spacing=4;" vertex="1" parent="MPbT1AF3VpLyfWpaxldT-1">
          <mxGeometry x="410" y="160" width="260" height="20" as="geometry" />
        </mxCell>
        <mxCell id="FJ4s6DIxZZOBehH7PrwX-0" value="Search" style="rounded=0;whiteSpace=wrap;html=1;align=left;spacingLeft=0;spacing=4;" vertex="1" parent="MPbT1AF3VpLyfWpaxldT-1">
          <mxGeometry x="500" y="830" width="170" height="20" as="geometry" />
        </mxCell>
        <mxCell id="MPbT1AF3VpLyfWpaxldT-20" value="Technology Integration" style="rounded=0;whiteSpace=wrap;html=1;align=left;fillColor=#f5f5f5;strokeColor=#666666;fontColor=#333333;spacingLeft=0;spacing=4;" vertex="1" parent="MPbT1AF3VpLyfWpaxldT-1">
          <mxGeometry x="250" y="810" width="160" height="180" as="geometry" />
        </mxCell>
        <mxCell id="MPbT1AF3VpLyfWpaxldT-22" value="Sessions, Operations &amp;amp; Auditing" style="rounded=0;whiteSpace=wrap;html=1;align=left;fillColor=#f5f5f5;strokeColor=#666666;fontColor=#333333;spacingLeft=0;spacing=4;" vertex="1" parent="MPbT1AF3VpLyfWpaxldT-1">
          <mxGeometry x="250" y="690" width="160" height="40" as="geometry" />
        </mxCell>
        <mxCell id="MPbT1AF3VpLyfWpaxldT-24" value="&lt;font style=&quot;font-size: 11px&quot;&gt;Users Mgmt &amp;amp; Authentication&lt;/font&gt;" style="rounded=0;whiteSpace=wrap;html=1;align=left;fillColor=#f5f5f5;strokeColor=#666666;fontColor=#333333;spacingLeft=0;spacing=4;" vertex="1" parent="MPbT1AF3VpLyfWpaxldT-1">
          <mxGeometry x="250" y="650" width="160" height="20" as="geometry" />
        </mxCell>
        <mxCell id="MPbT1AF3VpLyfWpaxldT-25" value="User Authorisation" style="rounded=0;whiteSpace=wrap;html=1;align=left;fillColor=#f5f5f5;strokeColor=#666666;fontColor=#333333;spacingLeft=0;spacing=4;" vertex="1" parent="MPbT1AF3VpLyfWpaxldT-1">
          <mxGeometry x="250" y="630" width="160" height="20" as="geometry" />
        </mxCell>
        <mxCell id="MPbT1AF3VpLyfWpaxldT-26" value="Notification" style="rounded=0;whiteSpace=wrap;html=1;align=left;fillColor=#f5f5f5;strokeColor=#666666;fontColor=#333333;spacingLeft=0;spacing=4;" vertex="1" parent="MPbT1AF3VpLyfWpaxldT-1">
          <mxGeometry x="250" y="530" width="160" height="20" as="geometry" />
        </mxCell>
        <mxCell id="MPbT1AF3VpLyfWpaxldT-28" value="Group Management" style="rounded=0;whiteSpace=wrap;html=1;align=left;fillColor=#f5f5f5;strokeColor=#666666;fontColor=#333333;spacingLeft=0;spacing=4;" vertex="1" parent="MPbT1AF3VpLyfWpaxldT-1">
          <mxGeometry x="250" y="590" width="160" height="40" as="geometry" />
        </mxCell>
        <mxCell id="MPbT1AF3VpLyfWpaxldT-46" value="Diagnostics &amp;amp; Metrics" style="rounded=0;whiteSpace=wrap;html=1;align=left;fillColor=#f5f5f5;strokeColor=#666666;fontColor=#333333;spacingLeft=0;spacing=4;" vertex="1" parent="MPbT1AF3VpLyfWpaxldT-1">
          <mxGeometry x="250" y="730" width="160" height="40" as="geometry" />
        </mxCell>
        <mxCell id="MPbT1AF3VpLyfWpaxldT-58" value="Status" style="rounded=0;whiteSpace=wrap;html=1;align=left;fillColor=#f5f5f5;strokeColor=#666666;fontColor=#333333;spacingLeft=0;spacing=4;" vertex="1" parent="MPbT1AF3VpLyfWpaxldT-1">
          <mxGeometry x="250" y="550" width="160" height="40" as="geometry" />
        </mxCell>
        <mxCell id="MPbT1AF3VpLyfWpaxldT-70" value="Configuration" style="rounded=0;whiteSpace=wrap;html=1;align=left;fillColor=#f5f5f5;strokeColor=#666666;fontColor=#333333;spacingLeft=0;spacing=4;" vertex="1" parent="MPbT1AF3VpLyfWpaxldT-1">
          <mxGeometry x="250" y="770" width="160" height="20" as="geometry" />
        </mxCell>
        <mxCell id="PKDct6SfFt8T3XtxHOYY-0" value="Messaging" style="rounded=0;whiteSpace=wrap;html=1;align=left;fillColor=#f5f5f5;strokeColor=#666666;fontColor=#333333;spacingLeft=0;spacing=4;" vertex="1" parent="MPbT1AF3VpLyfWpaxldT-1">
          <mxGeometry x="250" y="510" width="160" height="20" as="geometry" />
        </mxCell>
        <mxCell id="MPbT1AF3VpLyfWpaxldT-2" value="Automation Core Domain" style="rounded=0;whiteSpace=wrap;html=1;align=center;fillColor=#f5f5f5;strokeColor=#666666;fontColor=#333333;strokeWidth=3;spacingLeft=0;spacing=4;" vertex="1" parent="MPbT1AF3VpLyfWpaxldT-1">
          <mxGeometry x="130" y="510" width="120" height="480" as="geometry" />
        </mxCell>
        <mxCell id="FJ4s6DIxZZOBehH7PrwX-1" value="Search" style="rounded=0;whiteSpace=wrap;html=1;align=left;fillColor=#f5f5f5;strokeColor=#666666;fontColor=#333333;spacingLeft=0;spacing=4;" vertex="1" parent="MPbT1AF3VpLyfWpaxldT-1">
          <mxGeometry x="250" y="670" width="160" height="20" as="geometry" />
        </mxCell>
        <mxCell id="FJ4s6DIxZZOBehH7PrwX-2" value="Universal Synopsis Search&amp;nbsp;" style="rounded=0;whiteSpace=wrap;html=1;align=left;spacingLeft=0;spacing=4;" vertex="1" parent="MPbT1AF3VpLyfWpaxldT-1">
          <mxGeometry x="410" y="670" width="260" height="20" as="geometry" />
        </mxCell>
        <mxCell id="unfCGulQVyg2nSyRCTJK-1" value="Title/Diagram" parent="MPbT1AF3VpLyfWpaxldT-0" />
        <mxCell id="unfCGulQVyg2nSyRCTJK-0" value="&lt;font style=&quot;font-size: 12px ; font-weight: normal&quot;&gt;&lt;i&gt;&lt;span style=&quot;font-size: 12px&quot;&gt;Diagram: &lt;/span&gt;System&amp;nbsp; Context - Logical Domains (High Level details)&lt;/i&gt;&lt;/font&gt;" style="text;strokeColor=none;fillColor=none;html=1;fontSize=12;fontStyle=1;verticalAlign=middle;align=left;shadow=0;glass=0;comic=0;opacity=30;fontColor=#808080;" vertex="1" parent="unfCGulQVyg2nSyRCTJK-1">
          <mxGeometry x="120" y="1000" width="520" height="20" as="geometry" />
        </mxCell>
        <mxCell id="unfCGulQVyg2nSyRCTJK-3" value="Context/Legend" parent="MPbT1AF3VpLyfWpaxldT-0" />
      </root>
    </mxGraphModel>
  </diagram>
</mxfile>
